<svg width="1200" height="300" viewBox="0 0 1200 300" fill="none" xmlns="http://www.w3.org/2000/svg">
  <rect width="1200" height="300" fill="#121214"/>
  <rect x="0" y="0" width="1200" height="300" fill="url(#grad)" opacity="0.5"/>
  <defs>
    <linearGradient id="grad" x1="0" y1="0" x2="1200" y2="300">
      <stop offset="0%" stop-color="#848cd0" stop-opacity="0.15"/>
      <stop offset="100%" stop-color="#121214" stop-opacity="0"/>
    </linearGradient>
  </defs>
  <!-- Flask icon -->
  <g transform="translate(440, 90)">
    <path d="M30 10 L30 50 L10 90 C8 94 10 100 16 100 L64 100 C70 100 72 94 70 90 L50 50 L50 10" stroke="#848cd0" stroke-width="3" fill="none" stroke-linecap="round" stroke-linejoin="round"/>
    <line x1="25" y1="10" x2="55" y2="10" stroke="#848cd0" stroke-width="3" stroke-linecap="round"/>
    <ellipse cx="30" cy="75" rx="4" ry="4" fill="#848cd0" opacity="0.5"/>
    <ellipse cx="50" cy="82" rx="3" ry="3" fill="#848cd0" opacity="0.3"/>
    <ellipse cx="40" cy="70" rx="2.5" ry="2.5" fill="#848cd0" opacity="0.4"/>
  </g>
  <!-- Text -->
  <text x="530" y="135" font-family="system-ui, -apple-system, sans-serif" font-size="48" font-weight="700" fill="#ececf0">오답연구소</text>
  <text x="440" y="180" font-family="system-ui, -apple-system, sans-serif" font-size="18" fill="#8b8b9e">시험지 사진 한 장으로 AI가 오답 원인을 진단합니다</text>
  <!-- Tags -->
  <rect x="440" y="205" width="70" height="26" rx="5" fill="#848cd0" fill-opacity="0.12"/>
  <text x="475" y="223" font-family="system-ui, monospace" font-size="12" fill="#848cd0" text-anchor="middle">Next.js</text>
  <rect x="520" y="205" width="65" height="26" rx="5" fill="#848cd0" fill-opacity="0.12"/>
  <text x="552" y="223" font-family="system-ui, monospace" font-size="12" fill="#848cd0" text-anchor="middle">AI SDK</text>
  <rect x="595" y="205" width="78" height="26" rx="5" fill="#848cd0" fill-opacity="0.12"/>
  <text x="634" y="223" font-family="system-ui, monospace" font-size="12" fill="#848cd0" text-anchor="middle">GPT-5.4</text>
  <rect x="683" y="205" width="85" height="26" rx="5" fill="#848cd0" fill-opacity="0.12"/>
  <text x="725" y="223" font-family="system-ui, monospace" font-size="12" fill="#848cd0" text-anchor="middle">Tailwind v4</text>
</svg>
