<svg xmlns="http://www.w3.org/2000/svg" width="100%" height="300" viewBox="0 0 1200 300" fill="none">
  <rect width="1200" height="300" fill="#121214"/>
  <rect width="1200" height="300" fill="url(#g)" opacity="0.4"/>
  <defs>
    <linearGradient id="g" x1="0" y1="150" x2="1200" y2="150" gradientUnits="userSpaceOnUse">
      <stop offset="0%" stop-color="#121214"/>
      <stop offset="50%" stop-color="#848cd0" stop-opacity="0.18"/>
      <stop offset="100%" stop-color="#121214"/>
    </linearGradient>
  </defs>
  <!-- Flask icon (centered above title) -->
  <g transform="translate(575, 30) scale(0.7)">
    <path d="M30 8 L30 48 L10 88 C8 92 10 98 16 98 L64 98 C70 98 72 92 70 88 L50 48 L50 8" stroke="#848cd0" stroke-width="2.5" fill="none" stroke-linecap="round" stroke-linejoin="round"/>
    <line x1="24" y1="8" x2="56" y2="8" stroke="#848cd0" stroke-width="2.5" stroke-linecap="round"/>
    <circle cx="32" cy="72" r="3.5" fill="#848cd0" opacity="0.45"/>
    <circle cx="48" cy="80" r="2.5" fill="#848cd0" opacity="0.3"/>
    <circle cx="40" cy="66" r="2" fill="#848cd0" opacity="0.35"/>
    <line x1="20" y1="55" x2="60" y2="55" stroke="#848cd0" stroke-width="1" stroke-dasharray="3 3" opacity="0.25"/>
  </g>
  <!-- Title -->
  <text x="600" y="145" text-anchor="middle" font-family="'Apple SD Gothic Neo', 'Malgun Gothic', 'Noto Sans KR', sans-serif" font-size="46" font-weight="700" fill="#ececf0">오답연구소</text>
  <!-- Subtitle -->
  <text x="600" y="180" text-anchor="middle" font-family="'Apple SD Gothic Neo', 'Malgun Gothic', 'Noto Sans KR', sans-serif" font-size="16" fill="#8b8b9e" letter-spacing="0.5">시험지 사진 한 장으로 AI가 오답 원인을 진단합니다</text>
  <!-- Divider -->
  <line x1="540" y1="200" x2="660" y2="200" stroke="#848cd0" stroke-width="0.5" opacity="0.2"/>
  <!-- Tags -->
  <g font-family="'SF Mono', 'Cascadia Code', 'Consolas', monospace" font-size="11.5" text-anchor="middle">
    <rect x="410" y="216" width="72" height="26" rx="6" fill="#848cd0" fill-opacity="0.08" stroke="#848cd0" stroke-opacity="0.12" stroke-width="0.5"/>
    <text x="446" y="233" fill="#848cd0" opacity="0.7">Next.js</text>
    <rect x="494" y="216" width="68" height="26" rx="6" fill="#848cd0" fill-opacity="0.08" stroke="#848cd0" stroke-opacity="0.12" stroke-width="0.5"/>
    <text x="528" y="233" fill="#848cd0" opacity="0.7">AI SDK</text>
    <rect x="574" y="216" width="76" height="26" rx="6" fill="#848cd0" fill-opacity="0.08" stroke="#848cd0" stroke-opacity="0.12" stroke-width="0.5"/>
    <text x="612" y="233" fill="#848cd0" opacity="0.7">GPT-5.4</text>
    <rect x="662" y="216" width="82" height="26" rx="6" fill="#848cd0" fill-opacity="0.08" stroke="#848cd0" stroke-opacity="0.12" stroke-width="0.5"/>
    <text x="703" y="233" fill="#848cd0" opacity="0.7">Tailwind v4</text>
  </g>
  <!-- Subtle corner accents -->
  <line x1="40" y1="40" x2="75" y2="40" stroke="#848cd0" stroke-width="0.5" opacity="0.15"/>
  <line x1="40" y1="40" x2="40" y2="75" stroke="#848cd0" stroke-width="0.5" opacity="0.15"/>
  <line x1="1125" y1="260" x2="1160" y2="260" stroke="#848cd0" stroke-width="0.5" opacity="0.15"/>
  <line x1="1160" y1="225" x2="1160" y2="260" stroke="#848cd0" stroke-width="0.5" opacity="0.15"/>
</svg>
